<?xml version="1.0" encoding="UTF-8" standalone="no"?><!DOCTYPE svg PUBLIC "-//W3C//DTD SVG 1.1//EN" "http://www.w3.org/Graphics/SVG/1.1/DTD/svg11.dtd"><svg width="100%" height="100%" viewBox="0 0 441 165" version="1.1" xmlns="http://www.w3.org/2000/svg" xmlns:xlink="http://www.w3.org/1999/xlink" xml:space="preserve" xmlns:serif="http://www.serif.com/" style="fill-rule:evenodd;clip-rule:evenodd;stroke-linecap:round;stroke-linejoin:round;stroke-miterlimit:1.5;"><rect id="Artboard1" x="0" y="0" width="440.853" height="164.812" style="fill:none;"/><path d="M67.634,116.635c0,1.216 -0.23,2.358 -0.689,3.425c-0.46,1.068 -1.088,1.998 -1.885,2.789c-0.797,0.792 -1.729,1.418 -2.797,1.878c-1.068,0.459 -2.209,0.689 -3.425,0.689c-1.216,0 -2.357,-0.23 -3.425,-0.689c-1.068,-0.46 -1.997,-1.086 -2.789,-1.878c-0.792,-0.791 -1.417,-1.721 -1.877,-2.789c-0.46,-1.067 -0.69,-2.209 -0.69,-3.425l0,-13.194l4.383,0l0,13.194c0,0.603 0.115,1.17 0.345,1.701c0.23,0.532 0.544,0.996 0.942,1.395c0.399,0.398 0.866,0.713 1.402,0.942c0.537,0.23 1.106,0.345 1.709,0.345c0.603,0 1.172,-0.115 1.709,-0.345c0.536,-0.229 1.003,-0.544 1.402,-0.942c0.398,-0.399 0.713,-0.863 0.942,-1.395c0.23,-0.531 0.345,-1.098 0.345,-1.701l0,-13.194l4.398,0l0,13.194Z" style="fill:#f64;fill-rule:nonzero;"/><path d="M75.848,107.839l0,8.796l4.398,0c0.603,0 1.17,-0.115 1.701,-0.344c0.531,-0.23 0.996,-0.544 1.395,-0.943c0.398,-0.398 0.712,-0.866 0.942,-1.402c0.23,-0.536 0.345,-1.106 0.345,-1.709c0,-0.602 -0.115,-1.172 -0.345,-1.708c-0.23,-0.537 -0.544,-1.004 -0.942,-1.403c-0.399,-0.398 -0.864,-0.712 -1.395,-0.942c-0.531,-0.23 -1.098,-0.345 -1.701,-0.345l-4.398,0Zm0,17.577l-4.398,0l0,-21.975l8.796,0c0.807,0 1.584,0.105 2.33,0.314c0.745,0.21 1.443,0.506 2.091,0.889c0.649,0.383 1.242,0.843 1.778,1.379c0.536,0.537 0.996,1.132 1.379,1.786c0.383,0.653 0.68,1.353 0.889,2.099c0.209,0.746 0.314,1.522 0.314,2.329c0,0.756 -0.094,1.492 -0.283,2.207c-0.189,0.715 -0.46,1.395 -0.813,2.038c-0.352,0.644 -0.784,1.236 -1.295,1.778c-0.51,0.541 -1.082,1.011 -1.716,1.41l2.437,5.746l-4.674,0l-1.916,-4.428l-4.919,0.03l0,4.398Z" style="fill:#f64;fill-rule:nonzero;"/><path d="M107.294,125.416l-15.386,0l0,-21.975l4.398,0l0,17.577l10.988,0l0,4.398Z" style="fill:#f64;fill-rule:nonzero;"/><path d="M340.902,44.617c0,1.042 -0.136,2.046 -0.406,3.012c-0.271,0.965 -0.652,1.869 -1.142,2.712c-0.49,0.843 -1.083,1.612 -1.778,2.306c-0.694,0.695 -1.461,1.29 -2.298,1.786c-0.838,0.495 -1.742,0.878 -2.713,1.149c-0.97,0.271 -1.977,0.406 -3.019,0.406c-1.042,0 -2.045,-0.135 -3.011,-0.406c-0.965,-0.271 -1.869,-0.654 -2.712,-1.149c-0.843,-0.496 -1.612,-1.091 -2.307,-1.786c-0.694,-0.694 -1.289,-1.463 -1.785,-2.306c-0.495,-0.843 -0.878,-1.747 -1.149,-2.712c-0.271,-0.966 -0.406,-1.97 -0.406,-3.012c0,-1.042 0.135,-2.048 0.406,-3.019c0.271,-0.97 0.654,-1.874 1.149,-2.712c0.496,-0.838 1.091,-1.604 1.785,-2.299c0.695,-0.694 1.464,-1.287 2.307,-1.777c0.843,-0.491 1.747,-0.871 2.712,-1.142c0.966,-0.271 1.969,-0.406 3.011,-0.406c1.042,0 2.049,0.135 3.019,0.406c0.971,0.271 1.875,0.651 2.713,1.142c0.837,0.49 1.604,1.083 2.298,1.777c0.695,0.695 1.288,1.461 1.778,2.299c0.49,0.838 0.871,1.742 1.142,2.712c0.27,0.971 0.406,1.977 0.406,3.019Zm-4.368,0c0,-0.96 -0.184,-1.867 -0.551,-2.72c-0.368,-0.853 -0.866,-1.594 -1.495,-2.222c-0.628,-0.628 -1.368,-1.126 -2.222,-1.494c-0.853,-0.368 -1.759,-0.552 -2.72,-0.552c-0.97,0 -1.879,0.184 -2.727,0.552c-0.848,0.368 -1.589,0.866 -2.222,1.494c-0.634,0.628 -1.134,1.369 -1.502,2.222c-0.368,0.853 -0.552,1.76 -0.552,2.72c0,0.961 0.184,1.862 0.552,2.705c0.368,0.843 0.868,1.581 1.502,2.214c0.633,0.634 1.374,1.134 2.222,1.502c0.848,0.368 1.757,0.552 2.727,0.552c0.961,0 1.867,-0.184 2.72,-0.552c0.854,-0.368 1.594,-0.868 2.222,-1.502c0.629,-0.633 1.127,-1.371 1.495,-2.214c0.367,-0.843 0.551,-1.744 0.551,-2.705Z" style="fill:#f64;fill-rule:nonzero;"/><path d="M359.766,47.161c0,1.287 -0.22,2.462 -0.659,3.525c-0.439,1.062 -1.037,1.974 -1.793,2.735c-0.756,0.761 -1.642,1.351 -2.659,1.77c-1.016,0.419 -2.107,0.628 -3.271,0.628c-1.155,0 -2.24,-0.214 -3.257,-0.643c-1.016,-0.429 -1.905,-1.027 -2.666,-1.793c-0.761,-0.766 -1.362,-1.678 -1.801,-2.736c-0.439,-1.057 -0.659,-2.219 -0.659,-3.486l0,-14.589l4.199,0l0,7.662c0.225,-0.286 0.498,-0.541 0.82,-0.766c0.322,-0.224 0.669,-0.408 1.042,-0.551c0.373,-0.143 0.759,-0.253 1.157,-0.33c0.398,-0.076 0.787,-0.115 1.165,-0.115c1.164,0 2.255,0.217 3.271,0.651c1.017,0.435 1.903,1.04 2.659,1.816c0.756,0.777 1.354,1.694 1.793,2.751c0.439,1.058 0.659,2.215 0.659,3.471Zm-4.214,0c0,-0.633 -0.11,-1.223 -0.33,-1.77c-0.219,-0.546 -0.518,-1.019 -0.896,-1.417c-0.378,-0.399 -0.82,-0.71 -1.326,-0.935c-0.505,-0.225 -1.044,-0.337 -1.616,-0.337c-0.573,0 -1.111,0.125 -1.617,0.375c-0.506,0.25 -0.948,0.582 -1.326,0.996c-0.378,0.414 -0.674,0.889 -0.888,1.425c-0.215,0.537 -0.322,1.091 -0.322,1.663c0,0.634 0.107,1.221 0.322,1.762c0.214,0.542 0.51,1.012 0.888,1.41c0.378,0.399 0.82,0.713 1.326,0.943c0.506,0.23 1.044,0.345 1.617,0.345c0.572,0 1.111,-0.115 1.616,-0.345c0.506,-0.23 0.948,-0.544 1.326,-0.943c0.378,-0.398 0.677,-0.868 0.896,-1.41c0.22,-0.541 0.33,-1.128 0.33,-1.762Z" style="fill:#f64;fill-rule:nonzero;"/><path d="M367.076,34.641c0,0.388 -0.074,0.751 -0.222,1.088c-0.149,0.337 -0.348,0.631 -0.598,0.881c-0.25,0.251 -0.547,0.45 -0.889,0.598c-0.342,0.148 -0.702,0.222 -1.08,0.222c-0.399,0 -0.769,-0.074 -1.111,-0.222c-0.343,-0.148 -0.641,-0.347 -0.897,-0.598c-0.255,-0.25 -0.457,-0.544 -0.605,-0.881c-0.148,-0.337 -0.222,-0.7 -0.222,-1.088c0,-0.378 0.074,-0.738 0.222,-1.08c0.148,-0.343 0.35,-0.639 0.605,-0.889c0.256,-0.25 0.554,-0.45 0.897,-0.598c0.342,-0.148 0.712,-0.222 1.111,-0.222c0.378,0 0.738,0.074 1.08,0.222c0.342,0.148 0.639,0.348 0.889,0.598c0.25,0.25 0.449,0.546 0.598,0.889c0.148,0.342 0.222,0.702 0.222,1.08Zm-11.233,27.124l0,-4.214l2.314,0.031c0.562,0 1.083,-0.115 1.563,-0.345c0.48,-0.23 0.897,-0.536 1.249,-0.92c0.352,-0.383 0.631,-0.825 0.835,-1.325c0.205,-0.501 0.307,-1.027 0.307,-1.579l0,-14.313l4.275,0l0,14.313l-0.03,0c-0.011,0.767 -0.115,1.507 -0.315,2.222c-0.199,0.716 -0.482,1.382 -0.85,2c-0.368,0.618 -0.807,1.18 -1.318,1.686c-0.511,0.506 -1.075,0.94 -1.693,1.303c-0.618,0.362 -1.283,0.643 -1.993,0.842c-0.71,0.2 -1.448,0.299 -2.214,0.299l-2.13,0Z" style="fill:#f64;fill-rule:nonzero;"/><path d="M376.071,51.498c0.164,0.051 0.327,0.084 0.491,0.1c0.163,0.015 0.326,0.023 0.49,0.023c0.409,0 0.802,-0.057 1.18,-0.169c0.378,-0.112 0.733,-0.273 1.065,-0.483c0.332,-0.209 0.628,-0.465 0.889,-0.766c0.26,-0.301 0.472,-0.636 0.636,-1.004l3.065,3.08c-0.389,0.552 -0.836,1.048 -1.341,1.487c-0.506,0.439 -1.053,0.812 -1.64,1.119c-0.587,0.306 -1.205,0.539 -1.854,0.697c-0.649,0.158 -1.316,0.237 -2,0.237c-1.154,0 -2.24,-0.214 -3.256,-0.643c-1.017,-0.429 -1.906,-1.027 -2.667,-1.793c-0.761,-0.766 -1.361,-1.678 -1.801,-2.736c-0.439,-1.057 -0.658,-2.219 -0.658,-3.486c0,-1.297 0.219,-2.482 0.658,-3.555c0.44,-1.073 1.04,-1.987 1.801,-2.743c0.761,-0.756 1.65,-1.344 2.667,-1.763c1.016,-0.418 2.102,-0.628 3.256,-0.628c0.684,0 1.354,0.082 2.007,0.245c0.654,0.164 1.275,0.399 1.862,0.705c0.588,0.307 1.137,0.682 1.648,1.127c0.511,0.444 0.96,0.942 1.348,1.494l-7.846,9.455Zm2.146,-8.628c-0.195,-0.071 -0.386,-0.117 -0.575,-0.138c-0.189,-0.02 -0.386,-0.03 -0.59,-0.03c-0.572,0 -1.111,0.104 -1.617,0.314c-0.505,0.209 -0.945,0.508 -1.318,0.896c-0.373,0.389 -0.666,0.856 -0.881,1.403c-0.214,0.546 -0.322,1.162 -0.322,1.846c0,0.153 0.008,0.327 0.023,0.521c0.016,0.194 0.041,0.391 0.077,0.59c0.036,0.199 0.079,0.391 0.13,0.575c0.051,0.184 0.118,0.347 0.199,0.49l4.874,-6.467Z" style="fill:#f64;fill-rule:nonzero;"/><path d="M400.238,42.365l-3.065,3.08c-0.153,-0.429 -0.363,-0.815 -0.628,-1.157c-0.266,-0.342 -0.565,-0.631 -0.897,-0.866c-0.332,-0.235 -0.692,-0.414 -1.08,-0.536c-0.389,-0.123 -0.787,-0.184 -1.196,-0.184c-0.572,0 -1.111,0.117 -1.616,0.352c-0.506,0.235 -0.945,0.565 -1.318,0.989c-0.373,0.424 -0.667,0.927 -0.881,1.509c-0.215,0.582 -0.322,1.226 -0.322,1.931c0,0.572 0.107,1.108 0.322,1.609c0.214,0.501 0.508,0.94 0.881,1.318c0.373,0.378 0.812,0.674 1.318,0.889c0.505,0.214 1.044,0.322 1.616,0.322c0.409,0 0.802,-0.057 1.18,-0.169c0.378,-0.112 0.733,-0.273 1.065,-0.483c0.332,-0.209 0.629,-0.465 0.889,-0.766c0.261,-0.301 0.473,-0.636 0.636,-1.004l3.065,3.08c-0.388,0.552 -0.835,1.048 -1.341,1.487c-0.506,0.439 -1.052,0.812 -1.64,1.119c-0.587,0.306 -1.205,0.539 -1.854,0.697c-0.648,0.158 -1.315,0.237 -2,0.237c-1.154,0 -2.24,-0.217 -3.256,-0.651c-1.017,-0.434 -1.905,-1.029 -2.666,-1.785c-0.762,-0.756 -1.362,-1.64 -1.801,-2.651c-0.439,-1.012 -0.659,-2.095 -0.659,-3.249c0,-1.257 0.22,-2.432 0.659,-3.525c0.439,-1.093 1.039,-2.045 1.801,-2.858c0.761,-0.812 1.649,-1.453 2.666,-1.923c1.016,-0.47 2.102,-0.705 3.256,-0.705c0.685,0 1.357,0.087 2.016,0.261c0.659,0.173 1.287,0.426 1.884,0.758c0.598,0.332 1.15,0.738 1.655,1.219c0.506,0.48 0.943,1.031 1.311,1.655Z" style="fill:#f64;fill-rule:nonzero;"/><path d="M410.505,55.513c-1.011,0 -1.961,-0.192 -2.85,-0.575c-0.889,-0.383 -1.668,-0.909 -2.337,-1.578c-0.669,-0.669 -1.196,-1.448 -1.579,-2.337c-0.383,-0.889 -0.574,-1.839 -0.574,-2.85l0,-4.874l-2.038,0l0,-4.168l2.038,0l0,-6.559l4.168,0l0,6.559l6.344,0l0,4.168l-6.344,0l0,4.874c0,0.439 0.082,0.85 0.245,1.233c0.164,0.383 0.388,0.718 0.674,1.004c0.286,0.286 0.624,0.513 1.012,0.682c0.388,0.168 0.802,0.253 1.241,0.253l3.172,0l0,4.168l-3.172,0Z" style="fill:#f64;fill-rule:nonzero;"/><path d="M293.452,42.44l13.539,3.003l-10.526,9.03" style="fill:none;stroke:#ff990a;stroke-width:3.92px;"/><path d="M130.825,118.502l-13.54,-3.003l10.526,-9.03" style="fill:none;stroke:#ff990a;stroke-width:3.92px;"/><path d="M304.766,45.931l-211.764,53.029" style="fill:none;stroke:url(#_Radial1);stroke-width:3.92px;stroke-dasharray:19.62,11.77,0,0;"/><path d="M119.51,115.011l211.765,-53.029" style="fill:none;stroke:url(#_Radial2);stroke-width:3.92px;stroke-dasharray:19.62,11.77,0,0;"/><path d="M42.124,52.55l9.378,8.505l-4.574,5.103l-14.183,-13.332l13.861,-14.412l4.942,4.666l-9.424,9.47Z" style="fill:#00bef2;fill-rule:nonzero;"/><path d="M62.513,70.48l-6.276,0l0,-24.619l1.518,0l2.068,2.92c1.012,-0.92 2.161,-1.629 3.448,-2.127c1.288,-0.498 2.621,-0.747 4,-0.747l5.54,0l0,6.253l-5.54,0c-0.659,0 -1.28,0.122 -1.862,0.367c-0.582,0.246 -1.088,0.583 -1.517,1.012c-0.429,0.429 -0.766,0.935 -1.011,1.517c-0.246,0.582 -0.368,1.203 -0.368,1.862l0,13.562Z" style="fill:#00bef2;fill-rule:nonzero;"/><path d="M99.107,70.48l-1.517,0l-2.436,-3.379c-0.598,0.536 -1.23,1.038 -1.897,1.505c-0.666,0.468 -1.367,0.874 -2.103,1.219c-0.736,0.345 -1.49,0.617 -2.264,0.816c-0.774,0.199 -1.559,0.299 -2.356,0.299c-1.732,0 -3.36,-0.292 -4.885,-0.874c-1.525,-0.582 -2.858,-1.429 -4,-2.54c-1.141,-1.111 -2.042,-2.471 -2.701,-4.08c-0.658,-1.609 -0.988,-3.44 -0.988,-5.494c0,-1.915 0.33,-3.674 0.988,-5.275c0.659,-1.602 1.56,-2.977 2.701,-4.126c1.142,-1.15 2.475,-2.042 4,-2.678c1.525,-0.636 3.153,-0.954 4.885,-0.954c0.797,0 1.586,0.099 2.367,0.299c0.782,0.199 1.54,0.475 2.276,0.827c0.736,0.353 1.437,0.766 2.103,1.241c0.667,0.475 1.291,0.989 1.874,1.541l2.436,-2.92l1.517,0l0,24.573Zm-6.321,-12.528c0,-0.858 -0.165,-1.689 -0.494,-2.494c-0.33,-0.804 -0.778,-1.517 -1.345,-2.138c-0.567,-0.62 -1.23,-1.118 -1.988,-1.494c-0.759,-0.375 -1.567,-0.563 -2.425,-0.563c-0.858,0 -1.667,0.146 -2.425,0.437c-0.759,0.291 -1.418,0.72 -1.977,1.287c-0.56,0.567 -1,1.268 -1.322,2.103c-0.322,0.836 -0.483,1.789 -0.483,2.862c0,1.073 0.161,2.027 0.483,2.862c0.322,0.835 0.762,1.536 1.322,2.103c0.559,0.567 1.218,0.996 1.977,1.288c0.758,0.291 1.567,0.436 2.425,0.436c0.858,0 1.666,-0.187 2.425,-0.563c0.758,-0.375 1.421,-0.873 1.988,-1.494c0.567,-0.621 1.015,-1.333 1.345,-2.138c0.329,-0.804 0.494,-1.636 0.494,-2.494Z" style="fill:#00bef2;fill-rule:nonzero;"/><path d="M127.68,70.48l-1.517,0l-2.437,-3.379c-0.598,0.536 -1.23,1.038 -1.896,1.505c-0.667,0.468 -1.368,0.874 -2.104,1.219c-0.735,0.345 -1.49,0.617 -2.264,0.816c-0.774,0.199 -1.559,0.299 -2.356,0.299c-1.732,0 -3.36,-0.326 -4.885,-0.977c-1.524,-0.652 -2.858,-1.556 -3.999,-2.713c-1.142,-1.157 -2.042,-2.528 -2.701,-4.114c-0.659,-1.586 -0.989,-3.314 -0.989,-5.184c0,-1.854 0.33,-3.578 0.989,-5.172c0.659,-1.594 1.559,-2.973 2.701,-4.137c1.141,-1.165 2.475,-2.077 3.999,-2.736c1.525,-0.659 3.153,-0.988 4.885,-0.988c0.552,0 1.123,0.046 1.713,0.138c0.59,0.092 1.164,0.241 1.724,0.448c0.559,0.207 1.084,0.479 1.574,0.816c0.49,0.337 0.904,0.751 1.241,1.241l0,-11.493l6.322,0l0,34.411Zm-6.322,-12.528c0,-0.858 -0.164,-1.689 -0.494,-2.494c-0.329,-0.804 -0.778,-1.517 -1.345,-2.138c-0.567,-0.62 -1.229,-1.118 -1.988,-1.494c-0.758,-0.375 -1.567,-0.563 -2.425,-0.563c-0.858,0 -1.666,0.153 -2.425,0.46c-0.759,0.306 -1.418,0.747 -1.977,1.322c-0.559,0.574 -1,1.275 -1.322,2.103c-0.321,0.827 -0.482,1.762 -0.482,2.804c0,0.904 0.161,1.762 0.482,2.575c0.322,0.812 0.763,1.524 1.322,2.137c0.559,0.613 1.218,1.096 1.977,1.449c0.759,0.352 1.567,0.528 2.425,0.528c0.858,0 1.667,-0.187 2.425,-0.563c0.759,-0.375 1.421,-0.873 1.988,-1.494c0.567,-0.621 1.016,-1.333 1.345,-2.138c0.33,-0.804 0.494,-1.636 0.494,-2.494Z" style="fill:#00bef2;fill-rule:nonzero;"/><path d="M139.863,39.172c0,0.582 -0.112,1.126 -0.334,1.632c-0.222,0.506 -0.525,0.946 -0.908,1.322c-0.383,0.375 -0.831,0.674 -1.344,0.896c-0.514,0.223 -1.062,0.334 -1.644,0.334c-0.582,0 -1.13,-0.111 -1.644,-0.334c-0.513,-0.222 -0.957,-0.521 -1.333,-0.896c-0.375,-0.376 -0.674,-0.816 -0.896,-1.322c-0.222,-0.506 -0.334,-1.05 -0.334,-1.632c0,-0.567 0.112,-1.107 0.334,-1.62c0.222,-0.514 0.521,-0.958 0.896,-1.334c0.376,-0.375 0.82,-0.674 1.333,-0.896c0.514,-0.222 1.062,-0.333 1.644,-0.333c0.582,0 1.13,0.111 1.644,0.333c0.513,0.222 0.961,0.521 1.344,0.896c0.383,0.376 0.686,0.82 0.908,1.334c0.222,0.513 0.334,1.053 0.334,1.62Zm-1.081,31.308l-6.321,0l0,-24.619l6.321,0l0,24.619Z" style="fill:#00bef2;fill-rule:nonzero;"/><path d="M167.4,70.48l-1.517,0l-2.436,-3.379c-0.598,0.536 -1.23,1.038 -1.897,1.505c-0.666,0.468 -1.367,0.874 -2.103,1.219c-0.735,0.345 -1.49,0.617 -2.264,0.816c-0.774,0.199 -1.559,0.299 -2.356,0.299c-1.732,0 -3.36,-0.292 -4.885,-0.874c-1.525,-0.582 -2.858,-1.429 -3.999,-2.54c-1.142,-1.111 -2.042,-2.471 -2.701,-4.08c-0.659,-1.609 -0.989,-3.44 -0.989,-5.494c0,-1.915 0.33,-3.674 0.989,-5.275c0.659,-1.602 1.559,-2.977 2.701,-4.126c1.141,-1.15 2.474,-2.042 3.999,-2.678c1.525,-0.636 3.153,-0.954 4.885,-0.954c0.797,0 1.586,0.099 2.367,0.299c0.782,0.199 1.541,0.475 2.276,0.827c0.736,0.353 1.437,0.766 2.103,1.241c0.667,0.475 1.291,0.989 1.874,1.541l2.436,-2.92l1.517,0l0,24.573Zm-6.321,-12.528c0,-0.858 -0.165,-1.689 -0.494,-2.494c-0.33,-0.804 -0.778,-1.517 -1.345,-2.138c-0.567,-0.62 -1.23,-1.118 -1.988,-1.494c-0.759,-0.375 -1.567,-0.563 -2.425,-0.563c-0.858,0 -1.667,0.146 -2.425,0.437c-0.759,0.291 -1.418,0.72 -1.977,1.287c-0.559,0.567 -1,1.268 -1.322,2.103c-0.322,0.836 -0.483,1.789 -0.483,2.862c0,1.073 0.161,2.027 0.483,2.862c0.322,0.835 0.763,1.536 1.322,2.103c0.559,0.567 1.218,0.996 1.977,1.288c0.758,0.291 1.567,0.436 2.425,0.436c0.858,0 1.666,-0.187 2.425,-0.563c0.758,-0.375 1.421,-0.873 1.988,-1.494c0.567,-0.621 1.015,-1.333 1.345,-2.138c0.329,-0.804 0.494,-1.636 0.494,-2.494Z" style="fill:#00bef2;fill-rule:nonzero;"/><path d="M178.457,70.48l-6.275,0l0,-24.619l1.517,0l2.069,2.391c1.011,-0.92 2.156,-1.628 3.436,-2.126c1.28,-0.498 2.617,-0.747 4.011,-0.747c1.502,0 2.92,0.287 4.253,0.862c1.333,0.574 2.498,1.363 3.494,2.367c0.996,1.004 1.781,2.176 2.356,3.517c0.574,1.341 0.862,2.77 0.862,4.287l0,14.068l-6.276,0l0,-14.068c0,-0.644 -0.122,-1.253 -0.367,-1.827c-0.245,-0.575 -0.583,-1.077 -1.012,-1.506c-0.429,-0.429 -0.927,-0.766 -1.494,-1.011c-0.567,-0.246 -1.172,-0.368 -1.816,-0.368c-0.659,0 -1.279,0.122 -1.862,0.368c-0.582,0.245 -1.088,0.582 -1.517,1.011c-0.429,0.429 -0.766,0.931 -1.011,1.506c-0.245,0.574 -0.368,1.183 -0.368,1.827l0,14.068Z" style="fill:#00bef2;fill-rule:nonzero;"/><path d="M210.661,70.48c-1.517,0 -2.942,-0.287 -4.275,-0.862c-1.334,-0.575 -2.502,-1.364 -3.506,-2.368c-1.004,-1.004 -1.793,-2.172 -2.367,-3.505c-0.575,-1.333 -0.862,-2.759 -0.862,-4.276l0,-7.309l-3.058,0l0,-6.253l3.058,0l0,-9.838l6.252,0l0,9.838l9.516,0l0,6.253l-9.516,0l0,7.309c0,0.659 0.123,1.276 0.368,1.851c0.245,0.574 0.582,1.076 1.011,1.505c0.429,0.429 0.935,0.77 1.517,1.023c0.583,0.253 1.203,0.38 1.862,0.38l4.758,0l0,6.252l-4.758,0Z" style="fill:#00bef2;fill-rule:nonzero;"/><rect x="219.327" y="50.711" width="19.309" height="6.252" style="fill:#00bef2;fill-rule:nonzero;"/><path d="M184.689,110.437l-6.276,0l0,-24.618l1.517,0l2.069,2.919c1.012,-0.919 2.161,-1.628 3.448,-2.126c1.287,-0.498 2.621,-0.747 4,-0.747l5.54,0l0,6.252l-5.54,0c-0.659,0 -1.28,0.123 -1.862,0.368c-0.582,0.245 -1.088,0.582 -1.517,1.011c-0.429,0.429 -0.766,0.935 -1.012,1.517c-0.245,0.583 -0.367,1.203 -0.367,1.862l0,13.562Z" style="fill:#00bef2;fill-rule:nonzero;"/><path d="M221.237,97.91c0,1.839 -0.329,3.551 -0.988,5.137c-0.659,1.586 -1.556,2.958 -2.69,4.115c-1.134,1.157 -2.463,2.069 -3.988,2.735c-1.524,0.667 -3.16,1 -4.907,1c-1.732,0 -3.36,-0.333 -4.885,-1c-1.525,-0.666 -2.858,-1.578 -4,-2.735c-1.141,-1.157 -2.042,-2.529 -2.701,-4.115c-0.659,-1.586 -0.988,-3.298 -0.988,-5.137c0,-1.87 0.329,-3.601 0.988,-5.195c0.659,-1.594 1.56,-2.969 2.701,-4.126c1.142,-1.157 2.475,-2.065 4,-2.724c1.525,-0.659 3.153,-0.989 4.885,-0.989c1.747,0 3.383,0.311 4.907,0.931c1.525,0.621 2.854,1.502 3.988,2.644c1.134,1.141 2.031,2.513 2.69,4.114c0.659,1.602 0.988,3.383 0.988,5.345Zm-6.321,0c0,-1.012 -0.165,-1.927 -0.494,-2.747c-0.33,-0.82 -0.778,-1.525 -1.345,-2.115c-0.567,-0.59 -1.23,-1.042 -1.988,-1.356c-0.759,-0.314 -1.567,-0.471 -2.425,-0.471c-0.859,0 -1.667,0.157 -2.425,0.471c-0.759,0.314 -1.418,0.766 -1.977,1.356c-0.56,0.59 -1,1.295 -1.322,2.115c-0.322,0.82 -0.483,1.735 -0.483,2.747c0,0.95 0.161,1.831 0.483,2.643c0.322,0.812 0.762,1.517 1.322,2.115c0.559,0.598 1.218,1.069 1.977,1.414c0.758,0.344 1.566,0.517 2.425,0.517c0.858,0 1.666,-0.161 2.425,-0.483c0.758,-0.322 1.421,-0.774 1.988,-1.356c0.567,-0.582 1.015,-1.287 1.345,-2.115c0.329,-0.827 0.494,-1.739 0.494,-2.735Z" style="fill:#00bef2;fill-rule:nonzero;"/><path d="M242.799,107.564c-0.506,0.46 -1.046,0.893 -1.621,1.299c-0.575,0.406 -1.176,0.758 -1.804,1.057c-0.629,0.299 -1.276,0.537 -1.943,0.713c-0.666,0.176 -1.344,0.264 -2.034,0.264c-1.517,0 -2.942,-0.268 -4.275,-0.804c-1.334,-0.537 -2.502,-1.299 -3.506,-2.287c-1.004,-0.989 -1.793,-2.192 -2.368,-3.609c-0.574,-1.418 -0.862,-3.008 -0.862,-4.77l0,-13.608l6.253,0l0,13.608c0,0.827 0.126,1.567 0.379,2.218c0.253,0.651 0.594,1.199 1.023,1.644c0.429,0.444 0.931,0.781 1.506,1.011c0.574,0.23 1.191,0.345 1.85,0.345c0.644,0 1.253,-0.15 1.827,-0.448c0.575,-0.299 1.077,-0.694 1.506,-1.184c0.429,-0.491 0.766,-1.046 1.011,-1.667c0.246,-0.62 0.368,-1.26 0.368,-1.919l0,-13.608l6.276,0l0,24.618l-1.518,0l-2.068,-2.873Z" style="fill:#00bef2;fill-rule:nonzero;"/><path d="M263.51,110.437c-1.518,0 -2.943,-0.287 -4.276,-0.862c-1.333,-0.574 -2.502,-1.363 -3.505,-2.367c-1.004,-1.004 -1.793,-2.172 -2.368,-3.506c-0.575,-1.333 -0.862,-2.758 -0.862,-4.275l0,-7.31l-3.057,0l0,-6.252l3.057,0l0,-9.838l6.252,0l0,9.838l9.517,0l0,6.252l-9.517,0l0,7.31c0,0.659 0.123,1.276 0.368,1.85c0.245,0.575 0.582,1.077 1.012,1.506c0.429,0.429 0.934,0.77 1.517,1.023c0.582,0.253 1.203,0.379 1.862,0.379l4.758,0l0,6.252l-4.758,0Z" style="fill:#00bef2;fill-rule:nonzero;"/><path d="M281.577,104.415c0.245,0.077 0.49,0.126 0.736,0.149c0.245,0.023 0.49,0.035 0.735,0.035c0.613,0 1.203,-0.084 1.77,-0.253c0.567,-0.169 1.1,-0.41 1.598,-0.724c0.498,-0.314 0.942,-0.697 1.333,-1.149c0.391,-0.452 0.709,-0.954 0.954,-1.506l4.597,4.62c-0.582,0.828 -1.253,1.571 -2.011,2.23c-0.759,0.659 -1.579,1.218 -2.46,1.678c-0.881,0.46 -1.808,0.808 -2.781,1.046c-0.973,0.237 -1.973,0.356 -3,0.356c-1.731,0 -3.36,-0.322 -4.884,-0.965c-1.525,-0.644 -2.858,-1.54 -4,-2.69c-1.142,-1.149 -2.042,-2.517 -2.701,-4.103c-0.659,-1.586 -0.988,-3.329 -0.988,-5.229c0,-1.946 0.329,-3.724 0.988,-5.333c0.659,-1.609 1.559,-2.981 2.701,-4.115c1.142,-1.134 2.475,-2.015 4,-2.643c1.524,-0.628 3.153,-0.943 4.884,-0.943c1.027,0 2.031,0.123 3.011,0.368c0.981,0.245 1.912,0.598 2.793,1.058c0.881,0.459 1.705,1.022 2.471,1.689c0.767,0.667 1.441,1.414 2.023,2.241l-11.769,14.183Zm3.218,-12.941c-0.291,-0.108 -0.578,-0.177 -0.862,-0.207c-0.283,-0.031 -0.578,-0.046 -0.885,-0.046c-0.858,0 -1.666,0.157 -2.425,0.471c-0.758,0.314 -1.417,0.762 -1.977,1.345c-0.559,0.582 -1,1.283 -1.321,2.103c-0.322,0.82 -0.483,1.743 -0.483,2.77c0,0.23 0.011,0.49 0.034,0.781c0.023,0.292 0.062,0.587 0.115,0.885c0.054,0.299 0.119,0.586 0.196,0.862c0.076,0.276 0.176,0.521 0.298,0.736l7.31,-9.7Z" style="fill:#00bef2;fill-rule:nonzero;"/><path d="M302.771,110.437l-6.276,0l0,-24.618l1.517,0l2.069,2.919c1.012,-0.919 2.161,-1.628 3.448,-2.126c1.287,-0.498 2.621,-0.747 4,-0.747l5.54,0l0,6.252l-5.54,0c-0.659,0 -1.28,0.123 -1.862,0.368c-0.582,0.245 -1.088,0.582 -1.517,1.011c-0.429,0.429 -0.766,0.935 -1.012,1.517c-0.245,0.583 -0.367,1.203 -0.367,1.862l0,13.562Z" style="fill:#00bef2;fill-rule:nonzero;"/><path d="M315.896,83.037l4.942,-4.666l13.861,14.413l-14.183,13.332l-4.574,-5.103l9.378,-8.505l-9.424,-9.471Z" style="fill:#00bef2;fill-rule:nonzero;"/><defs><radialGradient id="_Radial1" cx="0" cy="0" r="1" gradientUnits="userSpaceOnUse" gradientTransform="matrix(87.6706,0,0,87.6706,199.481,72.2374)"><stop offset="0" style="stop-color:#ffb427;stop-opacity:0"/><stop offset="0.24" style="stop-color:#ffb326;stop-opacity:0"/><stop offset="0.49" style="stop-color:#ffb124;stop-opacity:0"/><stop offset="1" style="stop-color:#ff990a;stop-opacity:1"/></radialGradient><radialGradient id="_Radial2" cx="0" cy="0" r="1" gradientUnits="userSpaceOnUse" gradientTransform="matrix(87.6706,0,0,87.6706,224.796,88.7045)"><stop offset="0" style="stop-color:#ffb427;stop-opacity:0"/><stop offset="0.24" style="stop-color:#ffb326;stop-opacity:0"/><stop offset="0.49" style="stop-color:#ffb124;stop-opacity:0"/><stop offset="1" style="stop-color:#ff990a;stop-opacity:1"/></radialGradient></defs></svg>